<svg id="Layer_1" data-name="Layer 1" xmlns="http://www.w3.org/2000/svg" xmlns:xlink="http://www.w3.org/1999/xlink" viewBox="0 0 720 1280"><defs><style>.cls-1{fill:url(#linear-gradient);}.cls-2{fill:url(#linear-gradient-2);}.cls-3{fill:url(#linear-gradient-3);}.cls-4{fill:url(#linear-gradient-4);}.cls-5{fill:url(#linear-gradient-5);}.cls-6{fill:url(#linear-gradient-6);}.cls-7{fill:url(#linear-gradient-7);}.cls-8{fill:url(#linear-gradient-8);}.cls-9{fill:url(#linear-gradient-9);}.cls-10{fill:url(#linear-gradient-10);}.cls-11{fill:url(#linear-gradient-11);}.cls-12{fill:url(#linear-gradient-12);}.cls-13{fill:url(#linear-gradient-13);}.cls-14{fill:url(#linear-gradient-14);}.cls-15{fill:url(#linear-gradient-15);}.cls-16{fill:url(#linear-gradient-16);}.cls-17{fill:url(#linear-gradient-17);}.cls-18{fill:url(#linear-gradient-18);}.cls-19{fill:url(#linear-gradient-19);}.cls-20{fill:url(#linear-gradient-20);}.cls-21{fill:url(#linear-gradient-21);}.cls-22{fill:url(#linear-gradient-22);}.cls-23{fill:url(#linear-gradient-23);}.cls-24{fill:url(#linear-gradient-24);}.cls-25{fill:#f44166;}.cls-26{fill:#3aaa35;}.cls-27{fill:#2d1424;}</style><linearGradient id="linear-gradient" x1="316.06" y1="591.68" x2="316.06" y2="693.12" gradientUnits="userSpaceOnUse"><stop offset="0" stop-color="#d968d0"/><stop offset="1" stop-color="#eb4634"/></linearGradient><linearGradient id="linear-gradient-2" x1="351.63" y1="591.68" x2="351.63" y2="693.12" xlink:href="#linear-gradient"/><linearGradient id="linear-gradient-3" x1="396.54" y1="591.68" x2="396.54" y2="693.12" xlink:href="#linear-gradient"/><linearGradient id="linear-gradient-4" x1="406.5" y1="591.68" x2="406.5" y2="693.12" xlink:href="#linear-gradient"/><linearGradient id="linear-gradient-5" x1="314.67" y1="591.68" x2="314.67" y2="693.12" xlink:href="#linear-gradient"/><linearGradient id="linear-gradient-6" x1="354.72" y1="591.68" x2="354.72" y2="693.12" xlink:href="#linear-gradient"/><linearGradient id="linear-gradient-7" x1="347.18" y1="591.68" x2="347.18" y2="693.12" xlink:href="#linear-gradient"/><linearGradient id="linear-gradient-8" x1="360.73" y1="591.68" x2="360.73" y2="693.12" xlink:href="#linear-gradient"/><linearGradient id="linear-gradient-9" x1="343.09" y1="591.68" x2="343.09" y2="693.12" xlink:href="#linear-gradient"/><linearGradient id="linear-gradient-10" x1="360.86" y1="591.68" x2="360.86" y2="693.12" xlink:href="#linear-gradient"/><linearGradient id="linear-gradient-11" x1="367.13" y1="591.68" x2="367.13" y2="693.12" xlink:href="#linear-gradient"/><linearGradient id="linear-gradient-12" x1="346.6" y1="591.68" x2="346.6" y2="693.12" xlink:href="#linear-gradient"/><linearGradient id="linear-gradient-13" x1="373.77" y1="591.68" x2="373.77" y2="693.12" xlink:href="#linear-gradient"/><linearGradient id="linear-gradient-14" x1="331.56" y1="591.68" x2="331.56" y2="693.12" xlink:href="#linear-gradient"/><linearGradient id="linear-gradient-15" x1="360.74" y1="591.68" x2="360.74" y2="693.12" xlink:href="#linear-gradient"/><linearGradient id="linear-gradient-16" x1="379.52" y1="591.68" x2="379.52" y2="693.12" xlink:href="#linear-gradient"/><linearGradient id="linear-gradient-17" x1="387.16" y1="591.68" x2="387.16" y2="693.12" xlink:href="#linear-gradient"/><linearGradient id="linear-gradient-18" x1="363.38" y1="591.68" x2="363.38" y2="693.12" xlink:href="#linear-gradient"/><linearGradient id="linear-gradient-19" x1="332.56" y1="591.68" x2="332.56" y2="693.12" xlink:href="#linear-gradient"/><linearGradient id="linear-gradient-20" x1="323.12" y1="591.68" x2="323.12" y2="693.12" xlink:href="#linear-gradient"/><linearGradient id="linear-gradient-21" x1="360.53" y1="591.68" x2="360.53" y2="693.12" xlink:href="#linear-gradient"/><linearGradient id="linear-gradient-22" x1="394.85" y1="591.68" x2="394.85" y2="693.12" xlink:href="#linear-gradient"/><linearGradient id="linear-gradient-23" x1="341.47" y1="591.68" x2="341.47" y2="693.12" xlink:href="#linear-gradient"/><linearGradient id="linear-gradient-24" x1="387.41" y1="591.68" x2="387.41" y2="693.12" xlink:href="#linear-gradient"/></defs><path class="cls-1" d="M314.42,650.3a1.25,1.25,0,0,1-1.23-1A47.66,47.66,0,0,1,317.5,618a1.25,1.25,0,0,1,1.69-.55,1.26,1.26,0,0,1,.55,1.7,45.26,45.26,0,0,0-4.08,29.69,1.26,1.26,0,0,1-1,1.48A1.07,1.07,0,0,1,314.42,650.3Z"/><path class="cls-2" d="M322.49,613.5a1.31,1.31,0,0,1-.75-.24,1.27,1.27,0,0,1-.27-1.77,48,48,0,0,1,59.86-14.8,1.26,1.26,0,0,1-1.11,2.27,45.44,45.44,0,0,0-56.71,14A1.26,1.26,0,0,1,322.49,613.5Z"/><path class="cls-3" d="M406,631.82a1.25,1.25,0,0,1-1.23-1,45.3,45.3,0,0,0-18.45-28.23,1.26,1.26,0,0,1,1.45-2.07,47.8,47.8,0,0,1,19.47,29.8,1.27,1.27,0,0,1-1,1.49A1.06,1.06,0,0,1,406,631.82Z"/><path class="cls-4" d="M407,642h0a1.25,1.25,0,0,1-1.23-1.28,45.82,45.82,0,0,0-.9-9.91,1.26,1.26,0,1,1,2.47-.5,47.72,47.72,0,0,1,1,10.45A1.26,1.26,0,0,1,407,642Z"/><path class="cls-5" d="M314.89,652.29a1.27,1.27,0,0,1-1.22-1c-.17-.69-.33-1.38-.46-2.05a1.26,1.26,0,0,1,2.47-.5c.13.63.28,1.29.44,1.94a1.27,1.27,0,0,1-.92,1.53A1.15,1.15,0,0,1,314.89,652.29Z"/><path class="cls-6" d="M348.16,686.22a1.25,1.25,0,0,1-1-2.09,51.87,51.87,0,0,0,11-20.28,50.79,50.79,0,0,0,.82-23.8,1.27,1.27,0,0,1,1-1.49,1.25,1.25,0,0,1,1.48,1,53.28,53.28,0,0,1-.86,25,54.43,54.43,0,0,1-11.5,21.26A1.22,1.22,0,0,1,348.16,686.22Z"/><path class="cls-7" d="M342.12,684.15a1.24,1.24,0,0,1-.88-.36,1.26,1.26,0,0,1,0-1.78,45.49,45.49,0,0,0,9.86-15.31,1.26,1.26,0,0,1,1.64-.71,1.25,1.25,0,0,1,.71,1.63A48,48,0,0,1,343,683.77,1.28,1.28,0,0,1,342.12,684.15Z"/><path class="cls-8" d="M354.7,687.48a1.27,1.27,0,0,1-1-2,57.18,57.18,0,0,0,11-46.55l-.09-.42a4.6,4.6,0,0,0-5.32-3.19,4.6,4.6,0,0,0-3.69,4.81l.12.61a47.81,47.81,0,0,1-.1,19.54,1.26,1.26,0,1,1-2.47-.53,45.3,45.3,0,0,0,.33-17.29h0l-.24-1.21a7.13,7.13,0,1,1,14-2.82l.22,1.1h0A59.68,59.68,0,0,1,355.69,687,1.28,1.28,0,0,1,354.7,687.48Z"/><path class="cls-9" d="M336.6,681.38a1.22,1.22,0,0,1-.92-.4,1.25,1.25,0,0,1,.06-1.78A39.75,39.75,0,0,0,348,644.91a1.26,1.26,0,0,1,2.5-.34,42.26,42.26,0,0,1-13,36.47A1.23,1.23,0,0,1,336.6,681.38Z"/><path class="cls-10" d="M373,651.34a1.25,1.25,0,0,1-1.26-1.26,63.56,63.56,0,0,0-1.26-12.34l-.09-.49a10.45,10.45,0,0,0-20.36.42,1.26,1.26,0,0,1-2.47-.52,13,13,0,0,1,25.41.08l.2,1h0a65.61,65.61,0,0,1,1.11,11.83,1.26,1.26,0,0,1-1.26,1.26Z"/><path class="cls-11" d="M361.71,687.78a1.24,1.24,0,0,1-.71-.22,1.27,1.27,0,0,1-.33-1.76,63.39,63.39,0,0,0,10.63-28.45,1.26,1.26,0,1,1,2.5.28,65.78,65.78,0,0,1-11.05,29.6A1.25,1.25,0,0,1,361.71,687.78Z"/><path class="cls-12" d="M331.61,678a1.26,1.26,0,0,1-.82-2.21A33.87,33.87,0,0,0,342,644.72h0l-.24-1.2A18.82,18.82,0,0,1,361.69,621a1.26,1.26,0,0,1-.2,2.52A16.28,16.28,0,0,0,344.09,642l.2,1A36.23,36.23,0,0,1,343,662.24a36.62,36.62,0,0,1-10.52,15.47A1.3,1.3,0,0,1,331.61,678Z"/><path class="cls-13" d="M369.16,686.93a1.23,1.23,0,0,1-.64-.17,1.27,1.27,0,0,1-.45-1.73,68.81,68.81,0,0,0,8.1-48.45l-.11-.55a16.29,16.29,0,0,0-7.92-10.46,1.26,1.26,0,0,1,1.23-2.21,18.82,18.82,0,0,1,9.28,12.72l.22,1.07h0a71.31,71.31,0,0,1-8.6,49.15A1.27,1.27,0,0,1,369.16,686.93Z"/><path class="cls-14" d="M327.18,674.1a1.24,1.24,0,0,1-1-.46,1.26,1.26,0,0,1,.18-1.77,28.31,28.31,0,0,0,8.38-11.57,1.26,1.26,0,1,1,2.35.91A30.6,30.6,0,0,1,328,673.82,1.23,1.23,0,0,1,327.18,674.1Z"/><path class="cls-15" d="M383.64,663.79l-.21,0a1.27,1.27,0,0,1-1-1.45,74.37,74.37,0,0,0-.5-26.89l-.07-.34a22.11,22.11,0,0,0-43.48,8l.23,1.12a30.48,30.48,0,0,1,.43,9.28,1.26,1.26,0,1,1-2.51-.27,27.75,27.75,0,0,0-.18-7.28l-.24-1.23a24.64,24.64,0,1,1,48.3-9.74l.12.58h0a76.81,76.81,0,0,1,.4,27.21A1.26,1.26,0,0,1,383.64,663.79Z"/><path class="cls-16" d="M377,684.69a1.17,1.17,0,0,1-.55-.13,1.26,1.26,0,0,1-.59-1.68,74.42,74.42,0,0,0,5-13.41,1.26,1.26,0,1,1,2.44.66A77.53,77.53,0,0,1,378.11,684,1.26,1.26,0,0,1,377,684.69Z"/><path class="cls-17" d="M385.1,680.63a1.2,1.2,0,0,1-.45-.09,1.27,1.27,0,0,1-.73-1.63,80.31,80.31,0,0,0,3.76-44.32l-.06-.32a27.77,27.77,0,0,0-4.8-10.93,1.26,1.26,0,1,1,2-1.48A30.12,30.12,0,0,1,390,633.25h0l.11.52a82.84,82.84,0,0,1-3.81,46.05A1.26,1.26,0,0,1,385.1,680.63Z"/><path class="cls-18" d="M378.74,618.46a1.23,1.23,0,0,1-.8-.29,27.84,27.84,0,0,0-23.25-5.78,28.43,28.43,0,0,0-6.14,2,1.26,1.26,0,1,1-1.05-2.29,30.46,30.46,0,0,1,32,4.13,1.27,1.27,0,0,1,.18,1.78A1.29,1.29,0,0,1,378.74,618.46Z"/><path class="cls-19" d="M323.31,669.72a1.27,1.27,0,0,1-.8-2.25,22.05,22.05,0,0,0,8-20.66l-.2-1A30.47,30.47,0,0,1,341,616.11a1.26,1.26,0,1,1,1.59,2,27.91,27.91,0,0,0-10,26.15l.22,1.1a24.59,24.59,0,0,1-8.75,24.12A1.23,1.23,0,0,1,323.31,669.72Z"/><path class="cls-20" d="M320,664.87a1.28,1.28,0,0,1-1-.44,1.27,1.27,0,0,1,.15-1.78,16.35,16.35,0,0,0,5.59-14.92l-.15-.75a36.74,36.74,0,0,1-.7-5.74,1.26,1.26,0,1,1,2.52-.1,33.5,33.5,0,0,0,.45,4.24l.22,1.1a18.85,18.85,0,0,1-6.3,18.09A1.23,1.23,0,0,1,320,664.87Z"/><path class="cls-21" d="M395.37,638.67a1.27,1.27,0,0,1-1.25-1.08c-.19-1.29-.41-2.59-.66-3.87l-.12-.6a33.79,33.79,0,0,0-66.42.9,1.26,1.26,0,0,1-2.48-.44,36.3,36.3,0,0,1,71.17-1.87h0l.19.91c.3,1.51.57,3.06.8,4.6a1.27,1.27,0,0,1-1.06,1.44Z"/><path class="cls-22" d="M393.38,674a1.28,1.28,0,0,1-1.22-1.59,85.58,85.58,0,0,0,2.73-27.55,1.26,1.26,0,1,1,2.52-.16,88.35,88.35,0,0,1-2.81,28.36A1.27,1.27,0,0,1,393.38,674Z"/><path class="cls-23" d="M317.25,659.44a1.32,1.32,0,0,1-.86-.34,1.25,1.25,0,0,1-.06-1.78,10.55,10.55,0,0,0,2.67-8.76l-.09-.43A42.19,42.19,0,0,1,365.86,598a1.27,1.27,0,0,1-.33,2.51,39.65,39.65,0,0,0-44.29,46.42l.15.7a13,13,0,0,1-3.21,11.4A1.27,1.27,0,0,1,317.25,659.44Z"/><path class="cls-24" d="M401.45,663h-.15a1.26,1.26,0,0,1-1.1-1.41,92.2,92.2,0,0,0-1-28.84l-.18-.81A39.69,39.69,0,0,0,372.28,602a1.26,1.26,0,1,1,.77-2.4,42.21,42.21,0,0,1,28.22,30.66h0l.25,1.18a94.79,94.79,0,0,1,1.16,30.46A1.26,1.26,0,0,1,401.45,663Z"/><path class="cls-25" d="M393.45,579q-16.89-30.68-34.87-60.91a.72.72,0,0,0-1.12,0c-12.13,19.17-21.76,39.49-30.65,59.89a.15.15,0,0,0,0,.06h0a.31.31,0,1,0-.22.58l.34.13.05.07a10.73,10.73,0,0,0,4.32,2.07c3.48,1.44,7.84,2.2,11.15,2.89a93.79,93.79,0,0,0,17.07,2,92.49,92.49,0,0,0,33.61-5.5.41.41,0,0,0,.26-.63A.49.49,0,0,0,393.45,579Z"/><path class="cls-26" d="M397,584.67s0,0,0,0a3.27,3.27,0,0,0-2.54-3.26h-.12a.6.6,0,0,0-.37,0,86.16,86.16,0,0,1-33.71,5.76c-11.31-.18-24.36-1.5-34.16-6.61a.32.32,0,0,0-.48.15.38.38,0,0,0-.25.1,5.74,5.74,0,0,0-2.13,3.34.24.24,0,0,0,.11.25.35.35,0,0,0,.16.21c10.31,6.32,24.06,7.07,36.34,7.18,12.72.12,25.7-1.15,37.09-6.28A.45.45,0,0,0,397,584.67Z"/><path class="cls-27" d="M359.62,531a.5.5,0,0,0-.84,0,.28.28,0,0,0-.27.05c-1.56,1.3-3.22,2.83-3,4.83a3,3,0,0,0,2.86,2.63,2.84,2.84,0,0,0,3-2.2C361.83,534.53,360.44,532.65,359.62,531Z"/><path class="cls-27" d="M361.21,570.09a.49.49,0,0,0-.84,0,.28.28,0,0,0-.27,0c-1.56,1.3-3.22,2.83-3,4.82a3,3,0,0,0,2.86,2.64,2.84,2.84,0,0,0,3-2.2C363.42,573.59,362,571.71,361.21,570.09Z"/><path class="cls-27" d="M348.44,550.49a.5.5,0,0,0-.85,0,.28.28,0,0,0-.27,0c-1.6,1.25-3.31,2.74-3.17,4.74a3,3,0,0,0,2.77,2.71,2.89,2.89,0,0,0,3.09-2.12C350.52,554.05,349.2,552.13,348.44,550.49Z"/><path class="cls-27" d="M341.08,567.07c-.17-.36-.65-.27-.85,0a.28.28,0,0,0-.26.05c-1.61,1.26-3.32,2.75-3.17,4.75a3,3,0,0,0,2.77,2.7,2.87,2.87,0,0,0,3.09-2.12C343.16,570.62,341.84,568.71,341.08,567.07Z"/><path class="cls-27" d="M368.22,550.93a.48.48,0,0,0-.78.29.25.25,0,0,0-.22.14c-.86,1.7-1.71,3.66-.61,5.43a3.52,3.52,0,0,0,3.82,1.51,2.45,2.45,0,0,0,1.8-3C371.82,553.45,369.7,552.16,368.22,550.93Z"/><path class="cls-27" d="M380.48,567.84a.47.47,0,0,0-.77.28.23.23,0,0,0-.22.14c-.87,1.7-1.71,3.66-.62,5.43a3.52,3.52,0,0,0,3.83,1.51,2.45,2.45,0,0,0,1.8-3C384.09,570.35,382,569.06,380.48,567.84Z"/><path class="cls-25" d="M420.35,673.14q31-16.15,61.58-33.43a.7.7,0,0,0,.05-1.11c-18.88-12.6-39-22.71-59.13-32.09h-.06a0,0,0,0,1,0,0,.31.31,0,1,0-.58-.22c-.05.11-.09.22-.13.33l-.07,0a10.66,10.66,0,0,0-2.17,4.27c-1.51,3.45-2.37,7.8-3.13,11.09a93.24,93.24,0,0,0,2.43,50.78.4.4,0,0,0,.61.27A.48.48,0,0,0,420.35,673.14Z"/><path class="cls-26" d="M414.59,676.54h0a3.26,3.26,0,0,0,3.31-2.46.49.49,0,0,0,0-.12.68.68,0,0,0,0-.37,86.58,86.58,0,0,1-5-33.86c.43-11.3,2-24.33,7.36-34a.33.33,0,0,0-.14-.48.44.44,0,0,0-.1-.25,5.79,5.79,0,0,0-3.28-2.21.25.25,0,0,0-.26.11.3.3,0,0,0-.21.15c-6.54,10.16-7.59,23.9-8,36.18-.4,12.72.58,25.73,5.46,37.25A.45.45,0,0,0,414.59,676.54Z"/><path class="cls-27" d="M469,640.45a.5.5,0,0,0,0-.85.26.26,0,0,0,0-.26c-1.25-1.6-2.75-3.29-4.74-3.13a3.06,3.06,0,0,0-2.7,2.8,2.85,2.85,0,0,0,2.13,3.07C465.42,642.57,467.33,641.23,469,640.45Z"/><path class="cls-27" d="M429.92,641.11a.5.5,0,0,0,0-.85.26.26,0,0,0-.05-.26c-1.26-1.6-2.75-3.29-4.75-3.12a3,3,0,0,0-2.69,2.8,2.84,2.84,0,0,0,2.12,3.06C426.38,643.23,428.29,641.89,429.92,641.11Z"/><path class="cls-27" d="M449.77,628.79a.49.49,0,0,0,0-.84.3.3,0,0,0,0-.27c-1.22-1.63-2.67-3.38-4.67-3.28a3,3,0,0,0-2.76,2.71,2.87,2.87,0,0,0,2.05,3.13C446.18,630.8,448.13,629.52,449.77,628.79Z"/><path class="cls-27" d="M433.38,621a.49.49,0,0,0,0-.84.3.3,0,0,0,0-.27c-1.22-1.64-2.67-3.38-4.67-3.29a3,3,0,0,0-2.76,2.71,2.88,2.88,0,0,0,2.05,3.14C429.79,623,431.74,621.76,433.38,621Z"/><path class="cls-27" d="M448.9,648.57a.47.47,0,0,0-.27-.78.25.25,0,0,0-.13-.22c-1.68-.91-3.62-1.8-5.41-.75a3.52,3.52,0,0,0-1.59,3.79,2.46,2.46,0,0,0,3,1.88C446.31,652.12,447.64,650,448.9,648.57Z"/><path class="cls-27" d="M431.75,660.44a.47.47,0,0,0-.27-.78.25.25,0,0,0-.13-.23c-1.68-.9-3.61-1.79-5.41-.74a3.52,3.52,0,0,0-1.59,3.79,2.45,2.45,0,0,0,3,1.87C429.16,664,430.5,661.89,431.75,660.44Z"/><path class="cls-25" d="M326.6,698.77q14.79,31.54,30.73,62.69a.71.71,0,0,0,1.11.1c13.46-18.29,24.49-37.86,34.78-57.56a.18.18,0,0,0,0-.06h0a.31.31,0,1,0,.25-.56l-.33-.15-.05-.07a10.5,10.5,0,0,0-4.18-2.33c-3.38-1.65-7.7-2.68-11-3.58a94.62,94.62,0,0,0-16.95-3,93.45,93.45,0,0,0-34,3.35.41.41,0,0,0-.3.6A.48.48,0,0,0,326.6,698.77Z"/><path class="cls-26" d="M323.45,692.9v0a3.22,3.22,0,0,0,2.31,3.39.3.3,0,0,0,.13,0,.66.66,0,0,0,.37,0,87.17,87.17,0,0,1,34.13-3.6c11.3.89,24.28,3,33.74,8.71a.33.33,0,0,0,.49-.12.46.46,0,0,0,.26-.08,5.78,5.78,0,0,0,2.35-3.18.23.23,0,0,0-.09-.26.34.34,0,0,0-.15-.22c-9.88-6.93-23.59-8.53-35.87-9.42-12.72-.91-25.8-.47-37.56,3.91A.45.45,0,0,0,323.45,692.9Z"/><path class="cls-27" d="M357.17,748.51c.16.37.64.29.85,0a.26.26,0,0,0,.26,0c1.66-1.18,3.42-2.6,3.34-4.6a3,3,0,0,0-2.68-2.8,2.87,2.87,0,0,0-3.17,2C355.2,744.9,356.46,746.86,357.17,748.51Z"/><path class="cls-27" d="M358.25,709.62c.16.37.64.29.85,0a.31.31,0,0,0,.27,0c1.65-1.19,3.41-2.61,3.33-4.6a3,3,0,0,0-2.68-2.8,2.88,2.88,0,0,0-3.17,2C356.28,706,357.54,708,358.25,709.62Z"/><path class="cls-27" d="M369.7,729.89c.14.37.63.31.84.06a.27.27,0,0,0,.27,0c1.69-1.14,3.51-2.51,3.5-4.51a3,3,0,0,0-2.59-2.86,2.9,2.9,0,0,0-3.23,1.91C367.85,726.23,369.05,728.22,369.7,729.89Z"/><path class="cls-27" d="M378.19,713.89c.15.37.64.3.85.05a.25.25,0,0,0,.27,0c1.69-1.14,3.5-2.51,3.5-4.51a3,3,0,0,0-2.59-2.86,2.92,2.92,0,0,0-3.24,1.91C376.35,710.23,377.54,712.21,378.19,713.89Z"/><path class="cls-27" d="M349.93,728.21a.48.48,0,0,0,.79-.24.26.26,0,0,0,.23-.12c1-1.64,2-3.53,1-5.36a3.53,3.53,0,0,0-3.72-1.74,2.45,2.45,0,0,0-2,2.88C346.49,725.48,348.53,726.89,349.93,728.21Z"/><path class="cls-27" d="M338.81,710.65a.48.48,0,0,0,.79-.24.23.23,0,0,0,.23-.12c1-1.64,2-3.53,1-5.36a3.53,3.53,0,0,0-3.72-1.74,2.46,2.46,0,0,0-2,2.88C335.37,707.92,337.41,709.34,338.81,710.65Z"/><path class="cls-25" d="M297.05,604.89q-29.55,18.95-58.57,39a.72.72,0,0,0,0,1.12c19.89,10.82,40.75,19.07,61.66,26.58h.06s0,0,0,0a.31.31,0,1,0,.6.17c0-.11.07-.22.11-.34l.06-.06a10.56,10.56,0,0,0,1.8-4.45c1.22-3.57,1.7-8,2.19-11.33a93.38,93.38,0,0,0-6.71-50.41.4.4,0,0,0-.64-.21A.49.49,0,0,0,297.05,604.89Z"/><path class="cls-26" d="M302.51,603.06h0a3.29,3.29,0,0,0-3.08,2.76.25.25,0,0,0,0,.12.67.67,0,0,0,.05.36,86,86,0,0,1,7.85,33.3c.53,11.31,0,24.44-4.46,34.58a.33.33,0,0,0,.19.47.37.37,0,0,0,.11.24,5.7,5.7,0,0,0,3.46,1.9.24.24,0,0,0,.25-.13.31.31,0,0,0,.19-.17c5.67-10.72,5.55-24.52,4.9-36.79-.68-12.72-2.76-25.6-8.59-36.64A.44.44,0,0,0,302.51,603.06Z"/><path class="cls-27" d="M251.35,644a.49.49,0,0,0,.07.84.25.25,0,0,0,.07.26c1.39,1.47,3,3,5,2.68a3.08,3.08,0,0,0,2.45-3,2.83,2.83,0,0,0-2.38-2.86C254.7,641.57,252.91,643.08,251.35,644Z"/><path class="cls-27" d="M290.21,639.78a.49.49,0,0,0,.07.84.27.27,0,0,0,.07.26c1.39,1.48,3,3,5,2.68a3.08,3.08,0,0,0,2.45-3,2.84,2.84,0,0,0-2.38-2.86C293.56,637.34,291.77,638.86,290.21,639.78Z"/><path class="cls-27" d="M271.46,653.87a.5.5,0,0,0,.05.85.27.27,0,0,0,.06.26c1.35,1.52,2.94,3.12,4.93,2.85a3,3,0,0,0,2.53-3,2.88,2.88,0,0,0-2.31-2.94C274.87,651.55,273,653,271.46,653.87Z"/><path class="cls-27" d="M288.45,660.1a.51.51,0,0,0,.05.85.27.27,0,0,0,.07.26c1.35,1.52,2.94,3.12,4.93,2.85a3,3,0,0,0,2.52-3,2.87,2.87,0,0,0-2.31-2.94C291.87,657.78,290,659.23,288.45,660.1Z"/><path class="cls-27" d="M270.66,634.08a.47.47,0,0,0,.34.75.23.23,0,0,0,.15.21c1.75.75,3.75,1.46,5.46.25a3.56,3.56,0,0,0,1.26-3.93,2.44,2.44,0,0,0-3.12-1.59C273,630.3,271.79,632.52,270.66,634.08Z"/><path class="cls-27" d="M286.75,620.68a.47.47,0,0,0,.34.75.24.24,0,0,0,.15.21c1.75.75,3.75,1.46,5.46.25A3.55,3.55,0,0,0,294,618a2.43,2.43,0,0,0-3.11-1.6C289,616.91,287.89,619.12,286.75,620.68Z"/></svg>